<mxfile host="www.draw.io" modified="2019-11-15T04:24:00.929Z" agent="Mozilla/5.0 (Macintosh; Intel Mac OS X 10_14_6) AppleWebKit/537.36 (KHTML, like Gecko) Chrome/78.0.3904.70 Safari/537.36" etag="E7zqy5Om37x5e65IlyP9" version="12.2.6" type="github" pages="1">
  <diagram id="3SAmoiVlxwmhgFJKYuEp" name="Page-1">
    <mxGraphModel dx="936" dy="674" grid="1" gridSize="10" guides="1" tooltips="1" connect="1" arrows="1" fold="1" page="1" pageScale="1" pageWidth="1169" pageHeight="827" math="0" shadow="0">
      <root>
        <mxCell id="0"/>
        <mxCell id="1" parent="0"/>
        <mxCell id="eZTUCWaGUSo97DrQXdMs-1" value="A" style="rounded=1;whiteSpace=wrap;html=1;" parent="1" vertex="1">
          <mxGeometry x="70" y="100" width="120" height="70" as="geometry"/>
        </mxCell>
        <mxCell id="eZTUCWaGUSo97DrQXdMs-2" value="B" style="rounded=1;whiteSpace=wrap;html=1;" parent="1" vertex="1">
          <mxGeometry x="330" y="120" width="120" height="90" as="geometry"/>
        </mxCell>
        <mxCell id="eZTUCWaGUSo97DrQXdMs-3" value="C" style="rounded=1;whiteSpace=wrap;html=1;" parent="1" vertex="1">
          <mxGeometry x="70" y="240" width="120" height="60" as="geometry"/>
        </mxCell>
        <mxCell id="eZTUCWaGUSo97DrQXdMs-12" style="rounded=0;orthogonalLoop=1;jettySize=auto;html=1;exitX=1;exitY=0.25;exitDx=0;exitDy=0;entryX=0;entryY=0.25;entryDx=0;entryDy=0;endArrow=none;endFill=0;edgeStyle=orthogonalEdgeStyle;curved=1;" parent="1" source="eZTUCWaGUSo97DrQXdMs-5" target="eZTUCWaGUSo97DrQXdMs-9" edge="1">
          <mxGeometry relative="1" as="geometry"/>
        </mxCell>
        <mxCell id="eZTUCWaGUSo97DrQXdMs-5" value="R1" style="text;html=1;strokeColor=none;fillColor=none;align=center;verticalAlign=middle;whiteSpace=wrap;rounded=0;" parent="1" vertex="1">
          <mxGeometry x="150" y="110" width="40" height="20" as="geometry"/>
        </mxCell>
        <mxCell id="eZTUCWaGUSo97DrQXdMs-13" style="edgeStyle=orthogonalEdgeStyle;rounded=0;orthogonalLoop=1;jettySize=auto;html=1;exitX=1;exitY=0.5;exitDx=0;exitDy=0;entryX=0;entryY=0.25;entryDx=0;entryDy=0;endArrow=none;endFill=0;curved=1;" parent="1" source="eZTUCWaGUSo97DrQXdMs-6" target="eZTUCWaGUSo97DrQXdMs-10" edge="1">
          <mxGeometry relative="1" as="geometry"/>
        </mxCell>
        <mxCell id="eZTUCWaGUSo97DrQXdMs-6" value="R2" style="text;html=1;strokeColor=none;fillColor=none;align=center;verticalAlign=middle;whiteSpace=wrap;rounded=0;" parent="1" vertex="1">
          <mxGeometry x="150" y="140" width="40" height="20" as="geometry"/>
        </mxCell>
        <mxCell id="eZTUCWaGUSo97DrQXdMs-14" style="edgeStyle=orthogonalEdgeStyle;rounded=0;orthogonalLoop=1;jettySize=auto;html=1;exitX=1;exitY=0.5;exitDx=0;exitDy=0;entryX=0;entryY=0.5;entryDx=0;entryDy=0;endArrow=none;endFill=0;curved=1;dashed=1;" parent="1" source="eZTUCWaGUSo97DrQXdMs-7" target="eZTUCWaGUSo97DrQXdMs-11" edge="1">
          <mxGeometry relative="1" as="geometry"/>
        </mxCell>
        <mxCell id="eZTUCWaGUSo97DrQXdMs-7" value="R3" style="text;html=1;strokeColor=none;fillColor=none;align=center;verticalAlign=middle;whiteSpace=wrap;rounded=0;" parent="1" vertex="1">
          <mxGeometry x="150" y="250" width="40" height="20" as="geometry"/>
        </mxCell>
        <mxCell id="eZTUCWaGUSo97DrQXdMs-9" value="R1=1" style="text;html=1;strokeColor=none;fillColor=none;align=center;verticalAlign=middle;whiteSpace=wrap;rounded=0;" parent="1" vertex="1">
          <mxGeometry x="330" y="125" width="40" height="20" as="geometry"/>
        </mxCell>
        <mxCell id="eZTUCWaGUSo97DrQXdMs-10" value="R2=2" style="text;html=1;strokeColor=none;fillColor=none;align=center;verticalAlign=middle;whiteSpace=wrap;rounded=0;" parent="1" vertex="1">
          <mxGeometry x="330" y="155" width="40" height="20" as="geometry"/>
        </mxCell>
        <mxCell id="eZTUCWaGUSo97DrQXdMs-11" value="&amp;nbsp;R3=3" style="text;html=1;strokeColor=none;fillColor=none;align=center;verticalAlign=middle;whiteSpace=wrap;rounded=0;" parent="1" vertex="1">
          <mxGeometry x="330" y="185" width="40" height="20" as="geometry"/>
        </mxCell>
        <mxCell id="eZTUCWaGUSo97DrQXdMs-15" value="上下文：context" style="text;html=1;strokeColor=#000000;fillColor=none;align=center;verticalAlign=middle;whiteSpace=wrap;rounded=0;dashed=1;" parent="1" vertex="1">
          <mxGeometry x="310" y="80" width="160" height="20" as="geometry"/>
        </mxCell>
        <mxCell id="eZTUCWaGUSo97DrQXdMs-16" value="B(context.R1, context.R2, context.R3)" style="text;html=1;strokeColor=#000000;fillColor=none;align=center;verticalAlign=middle;whiteSpace=wrap;rounded=0;dashed=1;" parent="1" vertex="1">
          <mxGeometry x="300" y="230" width="230" height="20" as="geometry"/>
        </mxCell>
        <mxCell id="eZTUCWaGUSo97DrQXdMs-17" value="R4" style="text;html=1;strokeColor=none;fillColor=none;align=center;verticalAlign=middle;whiteSpace=wrap;rounded=0;" parent="1" vertex="1">
          <mxGeometry x="410" y="125" width="40" height="20" as="geometry"/>
        </mxCell>
        <mxCell id="eZTUCWaGUSo97DrQXdMs-18" value="R5" style="text;html=1;strokeColor=none;fillColor=none;align=center;verticalAlign=middle;whiteSpace=wrap;rounded=0;" parent="1" vertex="1">
          <mxGeometry x="410" y="155" width="40" height="20" as="geometry"/>
        </mxCell>
        <mxCell id="eZTUCWaGUSo97DrQXdMs-19" value="return { R4, R5 }" style="text;html=1;strokeColor=#000000;fillColor=none;align=center;verticalAlign=middle;whiteSpace=wrap;rounded=0;dashed=1;" parent="1" vertex="1">
          <mxGeometry x="470" y="125" width="100" height="20" as="geometry"/>
        </mxCell>
        <mxCell id="eZTUCWaGUSo97DrQXdMs-24" value="R1=1" style="text;html=1;strokeColor=none;fillColor=none;align=center;verticalAlign=middle;whiteSpace=wrap;rounded=0;dashed=1;" parent="1" vertex="1">
          <mxGeometry x="230" y="90" width="40" height="20" as="geometry"/>
        </mxCell>
        <mxCell id="eZTUCWaGUSo97DrQXdMs-62" value="A" style="rounded=1;whiteSpace=wrap;html=1;" parent="1" vertex="1">
          <mxGeometry x="70" y="433" width="120" height="70" as="geometry"/>
        </mxCell>
        <mxCell id="eZTUCWaGUSo97DrQXdMs-63" value="B" style="rounded=1;whiteSpace=wrap;html=1;" parent="1" vertex="1">
          <mxGeometry x="330" y="453" width="120" height="90" as="geometry"/>
        </mxCell>
        <mxCell id="eZTUCWaGUSo97DrQXdMs-64" value="C" style="rounded=1;whiteSpace=wrap;html=1;" parent="1" vertex="1">
          <mxGeometry x="70" y="573" width="120" height="60" as="geometry"/>
        </mxCell>
        <mxCell id="eZTUCWaGUSo97DrQXdMs-65" style="rounded=0;orthogonalLoop=1;jettySize=auto;html=1;exitX=1;exitY=0.25;exitDx=0;exitDy=0;entryX=0;entryY=0.25;entryDx=0;entryDy=0;endArrow=none;endFill=0;edgeStyle=orthogonalEdgeStyle;curved=1;dashed=1;" parent="1" source="eZTUCWaGUSo97DrQXdMs-66" target="eZTUCWaGUSo97DrQXdMs-71" edge="1">
          <mxGeometry relative="1" as="geometry"/>
        </mxCell>
        <mxCell id="eZTUCWaGUSo97DrQXdMs-66" value="R1" style="text;html=1;strokeColor=none;fillColor=none;align=center;verticalAlign=middle;whiteSpace=wrap;rounded=0;" parent="1" vertex="1">
          <mxGeometry x="150" y="443" width="40" height="20" as="geometry"/>
        </mxCell>
        <mxCell id="eZTUCWaGUSo97DrQXdMs-67" style="edgeStyle=orthogonalEdgeStyle;rounded=0;orthogonalLoop=1;jettySize=auto;html=1;exitX=1;exitY=0.5;exitDx=0;exitDy=0;entryX=0;entryY=0.25;entryDx=0;entryDy=0;endArrow=none;endFill=0;curved=1;dashed=1;" parent="1" source="eZTUCWaGUSo97DrQXdMs-68" target="eZTUCWaGUSo97DrQXdMs-72" edge="1">
          <mxGeometry relative="1" as="geometry"/>
        </mxCell>
        <mxCell id="eZTUCWaGUSo97DrQXdMs-68" value="R2" style="text;html=1;strokeColor=none;fillColor=none;align=center;verticalAlign=middle;whiteSpace=wrap;rounded=0;" parent="1" vertex="1">
          <mxGeometry x="150" y="473" width="40" height="20" as="geometry"/>
        </mxCell>
        <mxCell id="eZTUCWaGUSo97DrQXdMs-69" style="edgeStyle=orthogonalEdgeStyle;rounded=0;orthogonalLoop=1;jettySize=auto;html=1;exitX=1;exitY=0.5;exitDx=0;exitDy=0;entryX=0;entryY=0.5;entryDx=0;entryDy=0;endArrow=none;endFill=0;curved=1;" parent="1" source="eZTUCWaGUSo97DrQXdMs-70" target="eZTUCWaGUSo97DrQXdMs-73" edge="1">
          <mxGeometry relative="1" as="geometry"/>
        </mxCell>
        <mxCell id="eZTUCWaGUSo97DrQXdMs-70" value="R3" style="text;html=1;strokeColor=none;fillColor=none;align=center;verticalAlign=middle;whiteSpace=wrap;rounded=0;" parent="1" vertex="1">
          <mxGeometry x="150" y="583" width="40" height="20" as="geometry"/>
        </mxCell>
        <mxCell id="eZTUCWaGUSo97DrQXdMs-71" value="R1=1" style="text;html=1;strokeColor=none;fillColor=none;align=center;verticalAlign=middle;whiteSpace=wrap;rounded=0;" parent="1" vertex="1">
          <mxGeometry x="330" y="458" width="40" height="20" as="geometry"/>
        </mxCell>
        <mxCell id="eZTUCWaGUSo97DrQXdMs-72" value="R2=2" style="text;html=1;strokeColor=none;fillColor=none;align=center;verticalAlign=middle;whiteSpace=wrap;rounded=0;" parent="1" vertex="1">
          <mxGeometry x="330" y="488" width="40" height="20" as="geometry"/>
        </mxCell>
        <mxCell id="eZTUCWaGUSo97DrQXdMs-73" value="&amp;nbsp;R3=3" style="text;html=1;strokeColor=none;fillColor=none;align=center;verticalAlign=middle;whiteSpace=wrap;rounded=0;" parent="1" vertex="1">
          <mxGeometry x="330" y="518" width="40" height="20" as="geometry"/>
        </mxCell>
        <mxCell id="eZTUCWaGUSo97DrQXdMs-74" value="上下文：context" style="text;html=1;strokeColor=#000000;fillColor=none;align=center;verticalAlign=middle;whiteSpace=wrap;rounded=0;dashed=1;" parent="1" vertex="1">
          <mxGeometry x="310" y="413" width="160" height="20" as="geometry"/>
        </mxCell>
        <mxCell id="eZTUCWaGUSo97DrQXdMs-75" value="B(context.R1, context.R2, context.R3)" style="text;html=1;strokeColor=#000000;fillColor=none;align=center;verticalAlign=middle;whiteSpace=wrap;rounded=0;dashed=1;" parent="1" vertex="1">
          <mxGeometry x="300" y="563" width="230" height="20" as="geometry"/>
        </mxCell>
        <mxCell id="eZTUCWaGUSo97DrQXdMs-76" value="R4" style="text;html=1;strokeColor=none;fillColor=none;align=center;verticalAlign=middle;whiteSpace=wrap;rounded=0;" parent="1" vertex="1">
          <mxGeometry x="410" y="458" width="40" height="20" as="geometry"/>
        </mxCell>
        <mxCell id="eZTUCWaGUSo97DrQXdMs-77" value="R5" style="text;html=1;strokeColor=none;fillColor=none;align=center;verticalAlign=middle;whiteSpace=wrap;rounded=0;" parent="1" vertex="1">
          <mxGeometry x="410" y="488" width="40" height="20" as="geometry"/>
        </mxCell>
        <mxCell id="eZTUCWaGUSo97DrQXdMs-78" value="return { R4, R5 }" style="text;html=1;strokeColor=#000000;fillColor=none;align=center;verticalAlign=middle;whiteSpace=wrap;rounded=0;dashed=1;" parent="1" vertex="1">
          <mxGeometry x="470" y="458" width="100" height="20" as="geometry"/>
        </mxCell>
        <mxCell id="eZTUCWaGUSo97DrQXdMs-79" value="R3=3" style="text;html=1;strokeColor=none;fillColor=none;align=center;verticalAlign=middle;whiteSpace=wrap;rounded=0;dashed=1;" parent="1" vertex="1">
          <mxGeometry x="210" y="543" width="40" height="20" as="geometry"/>
        </mxCell>
        <mxCell id="eZTUCWaGUSo97DrQXdMs-80" value="R2=2" style="text;html=1;strokeColor=none;fillColor=none;align=center;verticalAlign=middle;whiteSpace=wrap;rounded=0;dashed=1;" parent="1" vertex="1">
          <mxGeometry x="230" y="130" width="40" height="20" as="geometry"/>
        </mxCell>
        <mxCell id="eZTUCWaGUSo97DrQXdMs-82" value="A" style="rounded=1;whiteSpace=wrap;html=1;" parent="1" vertex="1">
          <mxGeometry x="210" y="770" width="120" height="70" as="geometry"/>
        </mxCell>
        <mxCell id="eZTUCWaGUSo97DrQXdMs-83" value="B" style="rounded=1;whiteSpace=wrap;html=1;" parent="1" vertex="1">
          <mxGeometry x="470" y="790" width="120" height="90" as="geometry"/>
        </mxCell>
        <mxCell id="eZTUCWaGUSo97DrQXdMs-84" value="C" style="rounded=1;whiteSpace=wrap;html=1;" parent="1" vertex="1">
          <mxGeometry x="210" y="910" width="120" height="60" as="geometry"/>
        </mxCell>
        <mxCell id="eZTUCWaGUSo97DrQXdMs-85" style="rounded=0;orthogonalLoop=1;jettySize=auto;html=1;exitX=1;exitY=0.25;exitDx=0;exitDy=0;entryX=0;entryY=0.25;entryDx=0;entryDy=0;endArrow=none;endFill=0;edgeStyle=orthogonalEdgeStyle;curved=1;dashed=1;" parent="1" source="eZTUCWaGUSo97DrQXdMs-86" target="eZTUCWaGUSo97DrQXdMs-91" edge="1">
          <mxGeometry relative="1" as="geometry"/>
        </mxCell>
        <mxCell id="eZTUCWaGUSo97DrQXdMs-86" value="R1" style="text;html=1;strokeColor=none;fillColor=none;align=center;verticalAlign=middle;whiteSpace=wrap;rounded=0;" parent="1" vertex="1">
          <mxGeometry x="290" y="780" width="40" height="20" as="geometry"/>
        </mxCell>
        <mxCell id="eZTUCWaGUSo97DrQXdMs-87" style="edgeStyle=orthogonalEdgeStyle;rounded=0;orthogonalLoop=1;jettySize=auto;html=1;exitX=1;exitY=0.5;exitDx=0;exitDy=0;entryX=0;entryY=0.25;entryDx=0;entryDy=0;endArrow=none;endFill=0;curved=1;dashed=1;" parent="1" source="eZTUCWaGUSo97DrQXdMs-88" target="eZTUCWaGUSo97DrQXdMs-92" edge="1">
          <mxGeometry relative="1" as="geometry"/>
        </mxCell>
        <mxCell id="eZTUCWaGUSo97DrQXdMs-88" value="R2" style="text;html=1;strokeColor=none;fillColor=none;align=center;verticalAlign=middle;whiteSpace=wrap;rounded=0;" parent="1" vertex="1">
          <mxGeometry x="290" y="810" width="40" height="20" as="geometry"/>
        </mxCell>
        <mxCell id="eZTUCWaGUSo97DrQXdMs-89" style="edgeStyle=orthogonalEdgeStyle;rounded=0;orthogonalLoop=1;jettySize=auto;html=1;exitX=1;exitY=0.5;exitDx=0;exitDy=0;entryX=0;entryY=0.5;entryDx=0;entryDy=0;endArrow=none;endFill=0;curved=1;dashed=1;" parent="1" source="eZTUCWaGUSo97DrQXdMs-90" target="eZTUCWaGUSo97DrQXdMs-93" edge="1">
          <mxGeometry relative="1" as="geometry"/>
        </mxCell>
        <mxCell id="eZTUCWaGUSo97DrQXdMs-90" value="R3" style="text;html=1;strokeColor=none;fillColor=none;align=center;verticalAlign=middle;whiteSpace=wrap;rounded=0;" parent="1" vertex="1">
          <mxGeometry x="290" y="920" width="40" height="20" as="geometry"/>
        </mxCell>
        <mxCell id="eZTUCWaGUSo97DrQXdMs-91" value="R1" style="text;html=1;strokeColor=none;fillColor=none;align=center;verticalAlign=middle;whiteSpace=wrap;rounded=0;" parent="1" vertex="1">
          <mxGeometry x="470" y="795" width="40" height="20" as="geometry"/>
        </mxCell>
        <mxCell id="eZTUCWaGUSo97DrQXdMs-92" value="R2" style="text;html=1;strokeColor=none;fillColor=none;align=center;verticalAlign=middle;whiteSpace=wrap;rounded=0;" parent="1" vertex="1">
          <mxGeometry x="470" y="825" width="40" height="20" as="geometry"/>
        </mxCell>
        <mxCell id="eZTUCWaGUSo97DrQXdMs-93" value="&amp;nbsp;R3" style="text;html=1;strokeColor=none;fillColor=none;align=center;verticalAlign=middle;whiteSpace=wrap;rounded=0;" parent="1" vertex="1">
          <mxGeometry x="470" y="855" width="40" height="20" as="geometry"/>
        </mxCell>
        <mxCell id="eZTUCWaGUSo97DrQXdMs-94" value="上下文：context" style="text;html=1;strokeColor=#000000;fillColor=none;align=center;verticalAlign=middle;whiteSpace=wrap;rounded=0;dashed=1;" parent="1" vertex="1">
          <mxGeometry x="450" y="750" width="160" height="20" as="geometry"/>
        </mxCell>
        <mxCell id="eZTUCWaGUSo97DrQXdMs-95" value="B(context.R1, context.R2, context.R3)" style="text;html=1;strokeColor=#000000;fillColor=none;align=center;verticalAlign=middle;whiteSpace=wrap;rounded=0;dashed=1;" parent="1" vertex="1">
          <mxGeometry x="440" y="900" width="230" height="20" as="geometry"/>
        </mxCell>
        <mxCell id="eZTUCWaGUSo97DrQXdMs-96" value="R4" style="text;html=1;strokeColor=none;fillColor=none;align=center;verticalAlign=middle;whiteSpace=wrap;rounded=0;" parent="1" vertex="1">
          <mxGeometry x="550" y="795" width="40" height="20" as="geometry"/>
        </mxCell>
        <mxCell id="eZTUCWaGUSo97DrQXdMs-97" value="R5" style="text;html=1;strokeColor=none;fillColor=none;align=center;verticalAlign=middle;whiteSpace=wrap;rounded=0;" parent="1" vertex="1">
          <mxGeometry x="550" y="825" width="40" height="20" as="geometry"/>
        </mxCell>
        <mxCell id="eZTUCWaGUSo97DrQXdMs-98" value="return { R4, R5 }" style="text;html=1;strokeColor=#000000;fillColor=none;align=center;verticalAlign=middle;whiteSpace=wrap;rounded=0;dashed=1;" parent="1" vertex="1">
          <mxGeometry x="610" y="795" width="100" height="20" as="geometry"/>
        </mxCell>
        <mxCell id="eZTUCWaGUSo97DrQXdMs-100" value="ButtonB" style="rounded=1;whiteSpace=wrap;html=1;" parent="1" vertex="1">
          <mxGeometry x="20" y="910" width="120" height="60" as="geometry"/>
        </mxCell>
        <mxCell id="eZTUCWaGUSo97DrQXdMs-103" style="edgeStyle=orthogonalEdgeStyle;curved=1;rounded=0;orthogonalLoop=1;jettySize=auto;html=1;exitX=1;exitY=0.5;exitDx=0;exitDy=0;entryX=0;entryY=0.5;entryDx=0;entryDy=0;endArrow=none;endFill=0;" parent="1" source="eZTUCWaGUSo97DrQXdMs-101" target="eZTUCWaGUSo97DrQXdMs-102" edge="1">
          <mxGeometry relative="1" as="geometry"/>
        </mxCell>
        <mxCell id="eZTUCWaGUSo97DrQXdMs-101" value="click" style="text;html=1;strokeColor=none;fillColor=none;align=center;verticalAlign=middle;whiteSpace=wrap;rounded=0;" parent="1" vertex="1">
          <mxGeometry x="100" y="920" width="40" height="20" as="geometry"/>
        </mxCell>
        <mxCell id="eZTUCWaGUSo97DrQXdMs-102" value="invoke" style="text;html=1;strokeColor=none;fillColor=none;align=center;verticalAlign=middle;whiteSpace=wrap;rounded=0;" parent="1" vertex="1">
          <mxGeometry x="220" y="920" width="40" height="20" as="geometry"/>
        </mxCell>
        <mxCell id="eZTUCWaGUSo97DrQXdMs-104" value="ButtonA" style="rounded=1;whiteSpace=wrap;html=1;" parent="1" vertex="1">
          <mxGeometry x="20" y="770" width="120" height="60" as="geometry"/>
        </mxCell>
        <mxCell id="eZTUCWaGUSo97DrQXdMs-107" style="edgeStyle=orthogonalEdgeStyle;curved=1;rounded=0;orthogonalLoop=1;jettySize=auto;html=1;exitX=1;exitY=0.5;exitDx=0;exitDy=0;entryX=0;entryY=0.25;entryDx=0;entryDy=0;endArrow=none;endFill=0;" parent="1" source="eZTUCWaGUSo97DrQXdMs-105" target="eZTUCWaGUSo97DrQXdMs-106" edge="1">
          <mxGeometry relative="1" as="geometry"/>
        </mxCell>
        <mxCell id="eZTUCWaGUSo97DrQXdMs-105" value="click" style="text;html=1;strokeColor=none;fillColor=none;align=center;verticalAlign=middle;whiteSpace=wrap;rounded=0;" parent="1" vertex="1">
          <mxGeometry x="100" y="775" width="40" height="20" as="geometry"/>
        </mxCell>
        <mxCell id="eZTUCWaGUSo97DrQXdMs-106" value="invoke" style="text;html=1;strokeColor=none;fillColor=none;align=center;verticalAlign=middle;whiteSpace=wrap;rounded=0;" parent="1" vertex="1">
          <mxGeometry x="220" y="780" width="40" height="20" as="geometry"/>
        </mxCell>
        <mxCell id="eZTUCWaGUSo97DrQXdMs-108" value="A" style="rounded=1;whiteSpace=wrap;html=1;" parent="1" vertex="1">
          <mxGeometry x="285" y="1110" width="120" height="70" as="geometry"/>
        </mxCell>
        <mxCell id="eZTUCWaGUSo97DrQXdMs-109" value="B" style="rounded=1;whiteSpace=wrap;html=1;" parent="1" vertex="1">
          <mxGeometry x="545" y="1130" width="120" height="90" as="geometry"/>
        </mxCell>
        <mxCell id="eZTUCWaGUSo97DrQXdMs-110" value="C" style="rounded=1;whiteSpace=wrap;html=1;" parent="1" vertex="1">
          <mxGeometry x="285" y="1300" width="120" height="60" as="geometry"/>
        </mxCell>
        <mxCell id="eZTUCWaGUSo97DrQXdMs-111" style="rounded=0;orthogonalLoop=1;jettySize=auto;html=1;exitX=1;exitY=0.25;exitDx=0;exitDy=0;entryX=0;entryY=0.25;entryDx=0;entryDy=0;endArrow=none;endFill=0;edgeStyle=orthogonalEdgeStyle;curved=1;dashed=1;" parent="1" source="eZTUCWaGUSo97DrQXdMs-112" target="eZTUCWaGUSo97DrQXdMs-117" edge="1">
          <mxGeometry relative="1" as="geometry"/>
        </mxCell>
        <mxCell id="eZTUCWaGUSo97DrQXdMs-112" value="R1" style="text;html=1;strokeColor=none;fillColor=none;align=center;verticalAlign=middle;whiteSpace=wrap;rounded=0;" parent="1" vertex="1">
          <mxGeometry x="365" y="1120" width="40" height="20" as="geometry"/>
        </mxCell>
        <mxCell id="eZTUCWaGUSo97DrQXdMs-113" style="edgeStyle=orthogonalEdgeStyle;rounded=0;orthogonalLoop=1;jettySize=auto;html=1;exitX=1;exitY=0.5;exitDx=0;exitDy=0;entryX=0;entryY=0.25;entryDx=0;entryDy=0;endArrow=none;endFill=0;curved=1;dashed=1;" parent="1" source="eZTUCWaGUSo97DrQXdMs-114" target="eZTUCWaGUSo97DrQXdMs-118" edge="1">
          <mxGeometry relative="1" as="geometry"/>
        </mxCell>
        <mxCell id="eZTUCWaGUSo97DrQXdMs-114" value="R2" style="text;html=1;strokeColor=none;fillColor=none;align=center;verticalAlign=middle;whiteSpace=wrap;rounded=0;" parent="1" vertex="1">
          <mxGeometry x="365" y="1150" width="40" height="20" as="geometry"/>
        </mxCell>
        <mxCell id="eZTUCWaGUSo97DrQXdMs-115" style="edgeStyle=orthogonalEdgeStyle;rounded=0;orthogonalLoop=1;jettySize=auto;html=1;exitX=1;exitY=0.5;exitDx=0;exitDy=0;entryX=0;entryY=0.5;entryDx=0;entryDy=0;endArrow=none;endFill=0;curved=1;dashed=1;" parent="1" source="eZTUCWaGUSo97DrQXdMs-116" target="eZTUCWaGUSo97DrQXdMs-119" edge="1">
          <mxGeometry relative="1" as="geometry"/>
        </mxCell>
        <mxCell id="eZTUCWaGUSo97DrQXdMs-116" value="R3" style="text;html=1;strokeColor=none;fillColor=none;align=center;verticalAlign=middle;whiteSpace=wrap;rounded=0;" parent="1" vertex="1">
          <mxGeometry x="365" y="1310" width="40" height="20" as="geometry"/>
        </mxCell>
        <mxCell id="eZTUCWaGUSo97DrQXdMs-117" value="R1" style="text;html=1;strokeColor=none;fillColor=none;align=center;verticalAlign=middle;whiteSpace=wrap;rounded=0;" parent="1" vertex="1">
          <mxGeometry x="545" y="1135" width="40" height="20" as="geometry"/>
        </mxCell>
        <mxCell id="eZTUCWaGUSo97DrQXdMs-118" value="R2" style="text;html=1;strokeColor=none;fillColor=none;align=center;verticalAlign=middle;whiteSpace=wrap;rounded=0;" parent="1" vertex="1">
          <mxGeometry x="545" y="1165" width="40" height="20" as="geometry"/>
        </mxCell>
        <mxCell id="eZTUCWaGUSo97DrQXdMs-119" value="&amp;nbsp;R3" style="text;html=1;strokeColor=none;fillColor=none;align=center;verticalAlign=middle;whiteSpace=wrap;rounded=0;" parent="1" vertex="1">
          <mxGeometry x="545" y="1195" width="40" height="20" as="geometry"/>
        </mxCell>
        <mxCell id="eZTUCWaGUSo97DrQXdMs-120" value="上下文：context" style="text;html=1;strokeColor=#000000;fillColor=none;align=center;verticalAlign=middle;whiteSpace=wrap;rounded=0;dashed=1;" parent="1" vertex="1">
          <mxGeometry x="525" y="1090" width="160" height="20" as="geometry"/>
        </mxCell>
        <mxCell id="eZTUCWaGUSo97DrQXdMs-121" value="B(context.R1, context.R2, context.R3)" style="text;html=1;strokeColor=#000000;fillColor=none;align=center;verticalAlign=middle;whiteSpace=wrap;rounded=0;dashed=1;" parent="1" vertex="1">
          <mxGeometry x="515" y="1240" width="230" height="20" as="geometry"/>
        </mxCell>
        <mxCell id="eZTUCWaGUSo97DrQXdMs-145" style="edgeStyle=orthogonalEdgeStyle;curved=1;rounded=0;orthogonalLoop=1;jettySize=auto;html=1;exitX=1;exitY=0.75;exitDx=0;exitDy=0;endArrow=none;endFill=0;" parent="1" source="eZTUCWaGUSo97DrQXdMs-122" target="eZTUCWaGUSo97DrQXdMs-143" edge="1">
          <mxGeometry relative="1" as="geometry"/>
        </mxCell>
        <mxCell id="eZTUCWaGUSo97DrQXdMs-122" value="R4" style="text;html=1;strokeColor=none;fillColor=none;align=center;verticalAlign=middle;whiteSpace=wrap;rounded=0;" parent="1" vertex="1">
          <mxGeometry x="625" y="1135" width="40" height="20" as="geometry"/>
        </mxCell>
        <mxCell id="eZTUCWaGUSo97DrQXdMs-123" value="R5" style="text;html=1;strokeColor=none;fillColor=none;align=center;verticalAlign=middle;whiteSpace=wrap;rounded=0;" parent="1" vertex="1">
          <mxGeometry x="625" y="1165" width="40" height="20" as="geometry"/>
        </mxCell>
        <mxCell id="eZTUCWaGUSo97DrQXdMs-124" value="return { R4, R5 }" style="text;html=1;strokeColor=#000000;fillColor=none;align=center;verticalAlign=middle;whiteSpace=wrap;rounded=0;dashed=1;" parent="1" vertex="1">
          <mxGeometry x="685" y="1125" width="100" height="20" as="geometry"/>
        </mxCell>
        <mxCell id="eZTUCWaGUSo97DrQXdMs-125" value="ButtonB" style="rounded=1;whiteSpace=wrap;html=1;" parent="1" vertex="1">
          <mxGeometry x="95" y="1300" width="120" height="60" as="geometry"/>
        </mxCell>
        <mxCell id="eZTUCWaGUSo97DrQXdMs-126" style="edgeStyle=orthogonalEdgeStyle;curved=1;rounded=0;orthogonalLoop=1;jettySize=auto;html=1;exitX=1;exitY=0.5;exitDx=0;exitDy=0;entryX=0;entryY=0.5;entryDx=0;entryDy=0;endArrow=none;endFill=0;" parent="1" source="eZTUCWaGUSo97DrQXdMs-127" target="eZTUCWaGUSo97DrQXdMs-128" edge="1">
          <mxGeometry relative="1" as="geometry"/>
        </mxCell>
        <mxCell id="eZTUCWaGUSo97DrQXdMs-127" value="click" style="text;html=1;strokeColor=none;fillColor=none;align=center;verticalAlign=middle;whiteSpace=wrap;rounded=0;" parent="1" vertex="1">
          <mxGeometry x="175" y="1310" width="40" height="20" as="geometry"/>
        </mxCell>
        <mxCell id="eZTUCWaGUSo97DrQXdMs-128" value="invoke" style="text;html=1;strokeColor=none;fillColor=none;align=center;verticalAlign=middle;whiteSpace=wrap;rounded=0;" parent="1" vertex="1">
          <mxGeometry x="295" y="1310" width="40" height="20" as="geometry"/>
        </mxCell>
        <mxCell id="eZTUCWaGUSo97DrQXdMs-129" value="ButtonA" style="rounded=1;whiteSpace=wrap;html=1;" parent="1" vertex="1">
          <mxGeometry x="95" y="1110" width="120" height="60" as="geometry"/>
        </mxCell>
        <mxCell id="eZTUCWaGUSo97DrQXdMs-130" style="edgeStyle=orthogonalEdgeStyle;curved=1;rounded=0;orthogonalLoop=1;jettySize=auto;html=1;exitX=1;exitY=0.5;exitDx=0;exitDy=0;entryX=0;entryY=0.25;entryDx=0;entryDy=0;endArrow=none;endFill=0;" parent="1" source="eZTUCWaGUSo97DrQXdMs-131" target="eZTUCWaGUSo97DrQXdMs-132" edge="1">
          <mxGeometry relative="1" as="geometry"/>
        </mxCell>
        <mxCell id="eZTUCWaGUSo97DrQXdMs-131" value="click" style="text;html=1;strokeColor=none;fillColor=none;align=center;verticalAlign=middle;whiteSpace=wrap;rounded=0;" parent="1" vertex="1">
          <mxGeometry x="175" y="1115" width="40" height="20" as="geometry"/>
        </mxCell>
        <mxCell id="eZTUCWaGUSo97DrQXdMs-132" value="invoke" style="text;html=1;strokeColor=none;fillColor=none;align=center;verticalAlign=middle;whiteSpace=wrap;rounded=0;" parent="1" vertex="1">
          <mxGeometry x="295" y="1120" width="40" height="20" as="geometry"/>
        </mxCell>
        <mxCell id="eZTUCWaGUSo97DrQXdMs-133" value="D" style="rounded=1;whiteSpace=wrap;html=1;" parent="1" vertex="1">
          <mxGeometry x="190" y="1210" width="100" height="55" as="geometry"/>
        </mxCell>
        <mxCell id="eZTUCWaGUSo97DrQXdMs-136" style="edgeStyle=orthogonalEdgeStyle;curved=1;rounded=0;orthogonalLoop=1;jettySize=auto;html=1;entryX=0;entryY=0.5;entryDx=0;entryDy=0;endArrow=none;endFill=0;exitX=0.75;exitY=0;exitDx=0;exitDy=0;" parent="1" source="eZTUCWaGUSo97DrQXdMs-134" target="eZTUCWaGUSo97DrQXdMs-135" edge="1">
          <mxGeometry relative="1" as="geometry">
            <mxPoint x="305" y="1218" as="sourcePoint"/>
          </mxGeometry>
        </mxCell>
        <mxCell id="eZTUCWaGUSo97DrQXdMs-134" value="R6" style="text;html=1;strokeColor=none;fillColor=none;align=center;verticalAlign=middle;whiteSpace=wrap;rounded=0;" parent="1" vertex="1">
          <mxGeometry x="250" y="1217.5" width="40" height="20" as="geometry"/>
        </mxCell>
        <mxCell id="eZTUCWaGUSo97DrQXdMs-135" value="R6" style="text;html=1;strokeColor=none;fillColor=none;align=center;verticalAlign=middle;whiteSpace=wrap;rounded=0;" parent="1" vertex="1">
          <mxGeometry x="285" y="1155" width="40" height="20" as="geometry"/>
        </mxCell>
        <mxCell id="eZTUCWaGUSo97DrQXdMs-137" value="ButtonC" style="rounded=1;whiteSpace=wrap;html=1;" parent="1" vertex="1">
          <mxGeometry x="20" y="1205" width="120" height="60" as="geometry"/>
        </mxCell>
        <mxCell id="eZTUCWaGUSo97DrQXdMs-142" style="edgeStyle=orthogonalEdgeStyle;curved=1;rounded=0;orthogonalLoop=1;jettySize=auto;html=1;exitX=1;exitY=0.5;exitDx=0;exitDy=0;entryX=0;entryY=0.25;entryDx=0;entryDy=0;endArrow=none;endFill=0;" parent="1" source="eZTUCWaGUSo97DrQXdMs-138" target="eZTUCWaGUSo97DrQXdMs-140" edge="1">
          <mxGeometry relative="1" as="geometry"/>
        </mxCell>
        <mxCell id="eZTUCWaGUSo97DrQXdMs-138" value="click" style="text;html=1;strokeColor=none;fillColor=none;align=center;verticalAlign=middle;whiteSpace=wrap;rounded=0;" parent="1" vertex="1">
          <mxGeometry x="100" y="1210" width="40" height="20" as="geometry"/>
        </mxCell>
        <mxCell id="eZTUCWaGUSo97DrQXdMs-140" value="invoke" style="text;html=1;strokeColor=none;fillColor=none;align=center;verticalAlign=middle;whiteSpace=wrap;rounded=0;" parent="1" vertex="1">
          <mxGeometry x="190" y="1215" width="40" height="20" as="geometry"/>
        </mxCell>
        <mxCell id="eZTUCWaGUSo97DrQXdMs-146" style="edgeStyle=orthogonalEdgeStyle;curved=1;rounded=0;orthogonalLoop=1;jettySize=auto;html=1;exitX=1;exitY=0.5;exitDx=0;exitDy=0;entryX=0;entryY=0.5;entryDx=0;entryDy=0;endArrow=none;endFill=0;" parent="1" source="eZTUCWaGUSo97DrQXdMs-143" target="eZTUCWaGUSo97DrQXdMs-144" edge="1">
          <mxGeometry relative="1" as="geometry"/>
        </mxCell>
        <mxCell id="eZTUCWaGUSo97DrQXdMs-143" value="IF" style="rounded=1;whiteSpace=wrap;html=1;strokeColor=#000000;" parent="1" vertex="1">
          <mxGeometry x="820" y="1150" width="120" height="60" as="geometry"/>
        </mxCell>
        <mxCell id="eZTUCWaGUSo97DrQXdMs-144" value="E" style="rounded=1;whiteSpace=wrap;html=1;strokeColor=#000000;" parent="1" vertex="1">
          <mxGeometry x="1020" y="1145" width="120" height="60" as="geometry"/>
        </mxCell>
        <mxCell id="eZTUCWaGUSo97DrQXdMs-147" value="R4 &amp;gt; 0" style="text;html=1;strokeColor=none;fillColor=none;align=center;verticalAlign=middle;whiteSpace=wrap;rounded=0;" parent="1" vertex="1">
          <mxGeometry x="830" y="1155" width="40" height="20" as="geometry"/>
        </mxCell>
        <mxCell id="6F6WlgKRszxh8Tz2Ikxr-1" value="invoke" style="text;html=1;strokeColor=none;fillColor=none;align=center;verticalAlign=middle;whiteSpace=wrap;rounded=0;" vertex="1" parent="1">
          <mxGeometry x="1030" y="1150" width="40" height="20" as="geometry"/>
        </mxCell>
      </root>
    </mxGraphModel>
  </diagram>
</mxfile>
